<svg width="34" height="33" viewBox="0 0 34 33" fill="none" xmlns="http://www.w3.org/2000/svg">
<path id="Vector" d="M26.1788 31.4928L26.1537 31.4916L26.1286 31.4917C26.0205 31.4922 25.9138 31.4669 25.8173 31.4181L17.2367 26.9259L16.7729 26.6831L16.3091 26.9259L7.72368 31.4206L7.72208 31.4215C7.60889 31.481 7.48129 31.5076 7.35378 31.4982L7.28026 32.4954L7.35377 31.4981C7.22625 31.4888 7.10392 31.4438 7.00069 31.3683C6.89746 31.2928 6.81747 31.1899 6.76982 31.0713C6.72217 30.9526 6.70876 30.823 6.73113 30.6971L6.73113 30.697L8.41454 21.2194L8.50737 20.6968L8.12654 20.3271L1.19689 13.5993C1.11103 13.5122 1.05007 13.4037 1.02041 13.2851C0.991064 13.1677 0.993416 13.0447 1.02714 12.9286C1.06736 12.8108 1.13904 12.7061 1.23449 12.626C1.33233 12.5439 1.45124 12.4908 1.57773 12.4728L1.58111 12.4723L11.1766 11.0751L11.6988 10.9991L11.9307 10.525L16.1561 1.88913L16.1578 1.88552C16.2138 1.76997 16.3012 1.67253 16.4099 1.60435C16.5187 1.53616 16.6445 1.5 16.7729 1.5C16.9013 1.5 17.0271 1.53616 17.1358 1.60435C17.2446 1.67253 17.332 1.76997 17.388 1.88552L17.3879 1.88554L17.3921 1.89404L21.668 10.5131L21.901 10.9827L22.4197 11.0583L32.0152 12.4555L32.0186 12.456C32.145 12.474 32.264 12.527 32.3618 12.6092C32.4572 12.6893 32.5289 12.7939 32.5691 12.9118C32.6029 13.0278 32.6052 13.1508 32.5759 13.2682C32.5462 13.3869 32.4852 13.4954 32.3994 13.5824L25.4697 20.3102L25.0889 20.68L25.1817 21.2026L26.8652 30.6802L26.8651 30.6802L26.8674 30.6924C26.8918 30.8205 26.879 30.9529 26.8306 31.074C26.7828 31.1935 26.7022 31.297 26.5982 31.3727C26.4753 31.4575 26.328 31.4997 26.1788 31.4928Z" stroke="#FFAE5D" stroke-width="2"/>
</svg>
